<svg width="76" height="72" viewBox="0 0 76 72" fill="none" xmlns="http://www.w3.org/2000/svg">
<path d="M6.30701 6.02585L31.4163 29.7828M69.0802 6.02585L43.9709 29.7828" stroke="black" stroke-width="2" stroke-linecap="round" stroke-linejoin="round"/>
<path d="M37.6936 41.6613C55.028 41.6613 69.0802 35.0136 69.0802 26.8132C69.0802 18.6128 55.028 11.9651 37.6936 11.9651C20.3593 11.9651 6.30701 18.6128 6.30701 26.8132C6.30701 35.0136 20.3593 41.6613 37.6936 41.6613Z" stroke="black" stroke-width="2" stroke-linecap="round" stroke-linejoin="round"/>
<path d="M22.0003 39.8795V63.3396M37.6936 41.6613V65.4183M37.6936 65.4183C29.3694 65.4183 21.3861 63.854 15.4999 61.0694C9.6138 58.2848 6.30701 54.5082 6.30701 50.5702V26.8132M37.6936 65.4183C46.0179 65.4183 54.0012 63.854 59.8873 61.0694C65.7734 58.2848 69.0802 54.5082 69.0802 50.5702V26.8132M53.3869 39.8795V63.3396" stroke="black" stroke-width="2" stroke-linecap="round" stroke-linejoin="round"/>
</svg>
