<svg width="88" height="86" viewBox="0 0 88 86" fill="none" xmlns="http://www.w3.org/2000/svg">
<path opacity="0.2" d="M53.2568 33.8432C45.4811 26.1593 34.4701 24.6125 28.6451 30.3687C27.5263 31.4792 26.6506 32.8051 26.0723 34.2641C25.6622 35.2394 24.9728 36.0751 24.0888 36.6686C23.2047 37.2621 22.1645 37.5876 21.0959 37.605C17.0153 37.7319 13.2965 39.1251 10.5243 41.8612C3.35714 48.9437 5.29431 62.3471 14.8517 71.795C24.409 81.2428 37.9725 83.1538 45.1431 76.0712C47.9119 73.3318 49.3217 69.6569 49.4704 65.6245C49.488 64.5685 49.8174 63.5406 50.4179 62.6669C51.0185 61.7933 51.8642 61.1121 52.8512 60.7068C54.3276 60.1353 55.6694 59.2699 56.7931 58.1644C62.5978 52.4082 61.0224 41.5204 53.2568 33.8432ZM38.6521 56.2936C37.0473 56.2936 35.4786 55.8233 34.1443 54.9423C32.81 54.0613 31.77 52.809 31.1559 51.3439C30.5418 49.8788 30.3811 48.2667 30.6942 46.7113C31.0073 45.156 31.78 43.7273 32.9147 42.606C34.0495 41.4847 35.4952 40.721 37.0691 40.4117C38.6431 40.1023 40.2745 40.2611 41.7571 40.8679C43.2397 41.4748 44.5069 42.5025 45.3984 43.821C46.29 45.1396 46.7658 46.6898 46.7658 48.2756C46.7658 50.4021 45.911 52.4415 44.3894 53.9451C42.8677 55.4488 40.804 56.2936 38.6521 56.2936Z" fill="black"/>
<path d="M83.8389 14.3127L73.0206 3.62208C72.5623 3.16984 71.955 2.89512 71.3091 2.84787C70.6632 2.80062 70.0216 2.98399 69.501 3.36462C68.9803 3.74525 68.6151 4.29788 68.4719 4.92204C68.3286 5.54619 68.4168 6.20043 68.7203 6.7658L48.2939 26.9477C40.5892 22.9855 31.9615 23.3162 26.7349 28.4778C25.3556 29.8467 24.2751 31.4806 23.5604 33.2786C23.3409 33.766 22.9828 34.1799 22.5296 34.47C22.0765 34.76 21.5478 34.9137 21.0079 34.9123C16.0754 35.076 11.792 36.8232 8.61752 39.9602C4.53359 44.006 2.81617 49.8123 3.7425 56.3169C4.64177 62.5409 7.91095 68.7047 12.9584 73.6658C18.0058 78.627 24.2298 81.8709 30.5382 82.7596C31.6687 82.9265 32.8098 83.0136 33.9528 83.0201C39.1321 83.0201 43.6994 81.2729 47.0565 77.9555C50.231 74.8184 51.9992 70.5856 52.1648 65.7113C52.1643 65.1767 52.3213 64.6535 52.6166 64.2056C52.912 63.7576 53.333 63.4044 53.8281 63.189C55.6478 62.4831 57.3014 61.4154 58.6863 60.052C63.9095 54.8871 64.2442 46.3546 60.2346 38.7475L80.6577 18.5623C81.2298 18.8622 81.8919 18.9493 82.5235 18.8077C83.1551 18.6662 83.7143 18.3053 84.0995 17.7908C84.4847 17.2763 84.6702 16.6422 84.6224 16.004C84.5746 15.3657 84.2966 14.7656 83.8389 14.3127ZM68.4025 23.1125L64.1157 18.8763L72.4594 10.6278L76.7495 14.8673L68.4025 23.1125ZM54.8795 56.2701C54.0175 57.1184 52.9874 57.7815 51.8538 58.2179C50.3806 58.8177 49.1163 59.8289 48.2156 61.1278C47.315 62.4266 46.817 63.9567 46.7827 65.5309C46.661 69.0254 45.4304 72.0155 43.2566 74.177C40.4032 76.9933 36.157 78.1693 31.3023 77.4811C26.1433 76.7561 20.9809 74.0634 16.7685 69.9007C12.5561 65.7381 9.83121 60.6366 9.09759 55.5619C8.42144 50.7611 9.59117 46.5684 12.4411 43.7487C14.6285 41.5939 17.6542 40.3845 21.1905 40.2576C22.7837 40.2245 24.3325 39.7328 25.647 38.8426C26.9615 37.9525 27.9846 36.7026 28.5909 35.2463C29.0304 34.1202 29.7015 33.0964 30.5619 32.2396C32.4179 30.4055 34.9569 29.5235 37.7899 29.5235C40.0186 29.5588 42.2177 30.0347 44.2573 30.9233L37.4687 37.6484C35.4423 37.8689 33.5201 38.6508 31.9237 39.9039C30.3274 41.157 29.1218 42.8304 28.446 44.7311C27.7702 46.6319 27.6517 48.6827 28.1041 50.6471C28.5565 52.6115 29.5614 54.4097 31.003 55.8342C32.4446 57.2588 34.2642 58.2519 36.2521 58.6989C38.24 59.146 40.3153 59.0289 42.2388 58.361C44.1622 57.6932 45.8556 56.5019 47.1237 54.9244C48.3918 53.3469 49.183 51.4474 49.4061 49.4448L56.1947 42.7365C58.3989 47.8446 58.0811 53.0897 54.8795 56.2701ZM51.3636 35.7308C52.0781 36.441 52.7476 37.1941 53.3684 37.9858L48.1553 43.1374C47.1608 41.3529 45.6743 39.8839 43.8685 38.9012L49.0816 33.7463C49.877 34.3614 50.6334 35.0241 51.3467 35.7308H51.3636ZM38.652 42.9302C40.0866 42.9302 41.4624 43.4934 42.4769 44.4958C43.4913 45.4983 44.0612 46.8579 44.0612 48.2756C44.0612 49.3328 43.7439 50.3662 43.1496 51.2453C42.5552 52.1243 41.7104 52.8094 40.722 53.214C39.7336 53.6186 38.646 53.7244 37.5967 53.5182C36.5474 53.3119 35.5836 52.8028 34.8271 52.0553C34.0706 51.3077 33.5555 50.3553 33.3468 49.3184C33.138 48.2815 33.2452 47.2067 33.6546 46.23C34.064 45.2533 34.7573 44.4184 35.6468 43.8311C36.5364 43.2437 37.5822 42.9302 38.652 42.9302ZM55.1669 31.9556C54.4496 31.2495 53.6958 30.5804 52.9086 29.9511L60.2887 22.6548L64.5789 26.8943L57.1987 34.184C56.5619 33.406 55.8849 32.6612 55.1703 31.9523L55.1669 31.9556ZM32.4483 65.0933C32.9558 65.5943 33.2411 66.2741 33.2414 66.983C33.2418 67.6919 32.9571 68.3719 32.45 68.8734C31.943 69.3749 31.2551 69.6568 30.5377 69.6571C29.8203 69.6575 29.1322 69.3761 28.6247 68.8751L17.8064 58.1844C17.2993 57.6829 17.0146 57.0029 17.015 56.294C17.0153 55.5851 17.3006 54.9054 17.8081 54.4043C18.3155 53.9032 19.0037 53.6219 19.7211 53.6222C20.4384 53.6226 21.1263 53.9045 21.6334 54.406L32.4483 65.0933Z" fill="black"/>
</svg>
