<svg width="49" height="49" viewBox="0 0 49 49" fill="none" xmlns="http://www.w3.org/2000/svg">
<path d="M42.875 6.125V31.6458C42.875 33.541 42.1221 35.3586 40.782 36.6987C39.4419 38.0388 37.6244 38.7917 35.7292 38.7917C33.834 38.7917 32.0164 38.0388 30.6763 36.6987C29.3362 35.3586 28.5833 33.541 28.5833 31.6458C28.5833 29.7506 29.3362 27.9331 30.6763 26.593C32.0164 25.2529 33.834 24.5 35.7292 24.5C36.8317 24.5 37.8729 24.745 38.7917 25.1942V13.2096L18.375 17.5583V35.7292C18.375 37.6244 17.6221 39.4419 16.282 40.782C14.9419 42.1221 13.1244 42.875 11.2292 42.875C9.33398 42.875 7.51641 42.1221 6.1763 40.782C4.8362 39.4419 4.08334 37.6244 4.08334 35.7292C4.08334 33.834 4.8362 32.0164 6.1763 30.6763C7.51641 29.3362 9.33398 28.5833 11.2292 28.5833C12.3317 28.5833 13.3729 28.8283 14.2917 29.2775V12.25L42.875 6.125Z" fill="black"/>
</svg>
